<svg xmlns="http://www.w3.org/2000/svg" xmlns:xlink="http://www.w3.org/1999/xlink" width="62.732" height="62.732" viewBox="0 0 62.732 62.732">
  <defs>
    <style>
      .cls-1 {
        fill: #fff;
      }

      .cls-2 {
        fill: none;
        stroke: #2d9fc3;
        stroke-linecap: round;
        stroke-linejoin: round;
        stroke-width: 2px;
      }

      .cls-3 {
        filter: url(#Path_3985);
      }
    </style>
    <filter id="Path_3985" x="0" y="0" width="62.732" height="62.732" filterUnits="userSpaceOnUse">
      <feOffset dy="2" input="SourceAlpha"/>
      <feGaussianBlur stdDeviation="2.5" result="blur"/>
      <feFlood flood-opacity="0.161"/>
      <feComposite operator="in" in2="blur"/>
      <feComposite in="SourceGraphic"/>
    </filter>
  </defs>
  <g id="Component_365_34" data-name="Component 365 – 34" transform="translate(7.5 5.5)">
    <g id="Group_1539" data-name="Group 1539">
      <g id="Group_669" data-name="Group 669" transform="translate(0 0)">
        <g id="Group_502" data-name="Group 502">
          <g id="Group_534" data-name="Group 534">
            <g class="cls-3" transform="matrix(1, 0, 0, 1, -7.5, -5.5)">
              <path id="Path_3985-2" data-name="Path 3985" class="cls-1" d="M277.86,547.409a23.866,23.866,0,1,0,23.866,23.866A23.893,23.893,0,0,0,277.86,547.409Z" transform="translate(-246.49 -541.91)"/>
            </g>
          </g>
        </g>
      </g>
    </g>
    <g id="Group_1541" data-name="Group 1541" transform="translate(9.373 7.754)">
      <path id="Path_4315" data-name="Path 4315" class="cls-2" d="M327.3,464.872v-26.66A1.226,1.226,0,0,0,326.059,437H312.919a1.391,1.391,0,0,0-.966.389l-6.493,6.249a1.479,1.479,0,0,0-.461,1.238V463.66a1.226,1.226,0,0,0,1.239,1.212H327.3" transform="translate(-305 -437)"/>
      <path id="Path_4316" data-name="Path 4316" class="cls-2" d="M310,446.181h4.181V442" transform="translate(-306.516 -438.516)"/>
      <path id="Path_4317" data-name="Path 4317" class="cls-2" d="M331.207,443h.852a1.226,1.226,0,0,1,1.239,1.212v25.266a1.393,1.393,0,0,1-1.394,1.394H312.239A1.226,1.226,0,0,1,311,469.66v-.879" transform="translate(-306.819 -438.819)"/>
      <rect id="Rectangle_340" data-name="Rectangle 340" class="cls-2" width="5.024" height="7.537" transform="translate(12.561 4.418)"/>
      <line id="Line_336" data-name="Line 336" class="cls-2" x1="5.024" transform="translate(3.768 11.955)"/>
      <line id="Line_337" data-name="Line 337" class="cls-2" x1="13.817" transform="translate(3.768 16.979)"/>
      <line id="Line_339" data-name="Line 339" class="cls-2" x1="13.817" transform="translate(3.768 22.004)"/>
    </g>
  </g>
</svg>
