<svg xmlns="http://www.w3.org/2000/svg" xmlns:xlink="http://www.w3.org/1999/xlink" width="62.732" height="62.732" viewBox="0 0 62.732 62.732">
  <defs>
    <style>
      .cls-1 {
        fill: #fff;
      }

      .cls-2, .cls-3 {
        fill: #2d9fc3;
        stroke: #2d9fc3;
      }

      .cls-3 {
        stroke-width: 0.5px;
      }

      .cls-4 {
        filter: url(#Path_3985);
      }
    </style>
    <filter id="Path_3985" x="0" y="0" width="62.732" height="62.732" filterUnits="userSpaceOnUse">
      <feOffset dy="2" input="SourceAlpha"/>
      <feGaussianBlur stdDeviation="2.5" result="blur"/>
      <feFlood flood-opacity="0.161"/>
      <feComposite operator="in" in2="blur"/>
      <feComposite in="SourceGraphic"/>
    </filter>
  </defs>
  <g id="Component_362_60" data-name="Component 362 – 60" transform="translate(7.5 5.5)">
    <g id="Group_1551" data-name="Group 1551">
      <g id="Group_1534" data-name="Group 1534" transform="translate(0 0)">
        <g id="Group_669" data-name="Group 669" transform="translate(0 0)">
          <g id="Group_502" data-name="Group 502">
            <g id="Group_534" data-name="Group 534">
              <g class="cls-4" transform="matrix(1, 0, 0, 1, -7.5, -5.5)">
                <path id="Path_3985-2" data-name="Path 3985" class="cls-1" d="M277.86,547.409a23.866,23.866,0,1,0,23.866,23.866A23.893,23.893,0,0,0,277.86,547.409Z" transform="translate(-246.49 -541.91)"/>
              </g>
            </g>
          </g>
        </g>
      </g>
      <g id="Group_1548" data-name="Group 1548" transform="translate(4.561 5.771)">
        <g id="Group_1544" data-name="Group 1544" transform="translate(7.785)">
          <path id="Path_4330" data-name="Path 4330" class="cls-2" d="M967.693,585.9A15.841,15.841,0,0,0,952.7,596.687a6.519,6.519,0,0,1,1.452-.2A14.527,14.527,0,1,1,965.138,616v1.318a15.815,15.815,0,1,0,2.554-31.423Z" transform="translate(-952.699 -585.895)"/>
          <path id="Path_4331" data-name="Path 4331" class="cls-2" d="M974.726,595.71a12.635,12.635,0,0,0-11.59,7.636,6.473,6.473,0,0,1,1.208.479,11.32,11.32,0,1,1,7.728,15.5c.058.5.083.961.092,1.353a12.616,12.616,0,1,0,2.561-24.969Z" transform="translate(-959.732 -592.509)"/>
        </g>
        <g id="Group_1546" data-name="Group 1546" transform="translate(0 11.876)">
          <path id="Path_4332" data-name="Path 4332" class="cls-2" d="M970.563,670.332a.649.649,0,0,1-.649-.649V664.9a.649.649,0,1,1,1.3,0v4.781A.649.649,0,0,1,970.563,670.332Z" transform="translate(-956.516 -650.576)"/>
          <path id="Path_4333" data-name="Path 4333" class="cls-2" d="M942.055,670.332a.649.649,0,0,1-.649-.649V664.9a.649.649,0,0,1,1.3,0v4.781A.649.649,0,0,1,942.055,670.332Z" transform="translate(-937.304 -650.576)"/>
          <path id="Path_4334" data-name="Path 4334" class="cls-2" d="M947.087,632.537a5.112,5.112,0,1,1,5.112-5.112A5.118,5.118,0,0,1,947.087,632.537Zm0-8.926a3.814,3.814,0,1,0,3.814,3.814A3.818,3.818,0,0,0,947.087,623.611Z" transform="translate(-937.688 -622.313)"/>
          <g id="Group_1545" data-name="Group 1545" transform="translate(0 8.284)">
            <path id="Path_4335" data-name="Path 4335" class="cls-2" d="M934.226,647.715c-4.752,1.639-5.4,5.413-5.4,8.592v2.232a.649.649,0,0,0,1.3,0v-2.232c0-3.2.636-6.326,5.183-7.573A5.147,5.147,0,0,1,934.226,647.715Z" transform="translate(-928.828 -647.715)"/>
            <path id="Path_4336" data-name="Path 4336" class="cls-2" d="M967.683,647.715a5.178,5.178,0,0,1-1.084,1.019c4.547,1.246,5.183,4.372,5.183,7.573v2.232a.649.649,0,0,0,1.3,0v-2.232C973.08,653.128,972.435,649.354,967.683,647.715Z" transform="translate(-954.282 -647.715)"/>
          </g>
        </g>
        <g id="Group_1547" data-name="Group 1547" transform="translate(16.458 9.463)">
          <path id="Path_4337" data-name="Path 4337" class="cls-3" d="M985.128,616.5H981.09v2.488h3.718a.813.813,0,0,1,.613.211.771.771,0,0,1,.2.556.726.726,0,0,1-.815.781H981.09v2.882h4.177a.841.841,0,0,1,.637.224.832.832,0,0,1,.214.6.813.813,0,0,1-.214.584.841.841,0,0,1-.637.224H980.4a1.058,1.058,0,0,1-.842-.3,1.458,1.458,0,0,1-.256-.96v-7.615a1.922,1.922,0,0,1,.115-.722.769.769,0,0,1,.359-.408,1.347,1.347,0,0,1,.625-.128h4.733a.843.843,0,0,1,.636.218.79.79,0,0,1,.208.57.8.8,0,0,1-.208.577A.844.844,0,0,1,985.128,616.5Z" transform="translate(-979.297 -614.913)"/>
          <path id="Path_4338" data-name="Path 4338" class="cls-3" d="M1010.411,616.5h-4.038v2.488h3.718a.813.813,0,0,1,.612.211.769.769,0,0,1,.2.556.726.726,0,0,1-.815.781h-3.718v2.882h4.177a.84.84,0,0,1,.636.224.831.831,0,0,1,.214.6.813.813,0,0,1-.214.584.84.84,0,0,1-.636.224h-4.871a1.059,1.059,0,0,1-.842-.3,1.457,1.457,0,0,1-.256-.96v-7.615a1.911,1.911,0,0,1,.115-.722.768.768,0,0,1,.359-.408,1.347,1.347,0,0,1,.625-.128h4.732a.844.844,0,0,1,.637.218.791.791,0,0,1,.208.57.8.8,0,0,1-.208.577A.844.844,0,0,1,1010.411,616.5Z" transform="translate(-996.335 -614.913)"/>
        </g>
      </g>
    </g>
  </g>
</svg>
