<svg xmlns="http://www.w3.org/2000/svg" xmlns:xlink="http://www.w3.org/1999/xlink" width="62.732" height="62.732" viewBox="0 0 62.732 62.732">
  <defs>
    <style>
      .cls-1 {
        fill: #fff;
      }

      .cls-2, .cls-3 {
        fill: #2d9fc3;
        stroke: #2d9fc3;
      }

      .cls-3 {
        stroke-width: 0.5px;
      }

      .cls-4 {
        filter: url(#Path_3985);
      }
    </style>
    <filter id="Path_3985" x="0" y="0" width="62.732" height="62.732" filterUnits="userSpaceOnUse">
      <feOffset dy="2" input="SourceAlpha"/>
      <feGaussianBlur stdDeviation="2.5" result="blur"/>
      <feFlood flood-opacity="0.161"/>
      <feComposite operator="in" in2="blur"/>
      <feComposite in="SourceGraphic"/>
    </filter>
  </defs>
  <g id="Component_363_60" data-name="Component 363 – 60" transform="translate(7.5 5.5)">
    <g id="Group_1535" data-name="Group 1535">
      <g id="Group_669" data-name="Group 669" transform="translate(0 0)">
        <g id="Group_502" data-name="Group 502">
          <g id="Group_534" data-name="Group 534">
            <g class="cls-4" transform="matrix(1, 0, 0, 1, -7.5, -5.5)">
              <path id="Path_3985-2" data-name="Path 3985" class="cls-1" d="M277.86,547.409a23.866,23.866,0,1,0,23.866,23.866A23.893,23.893,0,0,0,277.86,547.409Z" transform="translate(-246.49 -541.91)"/>
            </g>
          </g>
        </g>
      </g>
    </g>
    <g id="Group_1556" data-name="Group 1556" transform="translate(4.568 6.178)">
      <g id="Group_1552" data-name="Group 1552" transform="translate(8.62)">
        <path id="Path_4339" data-name="Path 4339" class="cls-2" d="M1096.564,585.9a15.459,15.459,0,0,0-14.59,10.793,6.2,6.2,0,0,1,1.413-.2,14.164,14.164,0,0,1,13.176-9.293,14.526,14.526,0,0,1,0,29.041,13.8,13.8,0,0,1-2.485-.229v1.318a15.018,15.018,0,0,0,2.485.209,15.825,15.825,0,0,0,0-31.637Z" transform="translate(-1081.974 -585.895)"/>
        <path id="Path_4340" data-name="Path 4340" class="cls-2" d="M1103.265,595.71a11.831,11.831,0,0,0-10.853,7.43,5.917,5.917,0,0,1,1.131.466,10.61,10.61,0,0,1,9.722-6.633,11.019,11.019,0,0,1,0,22.022,10.2,10.2,0,0,1-2.485-.308c.054.488.078.935.087,1.317a11.39,11.39,0,0,0,2.4.255,12.283,12.283,0,0,0,0-24.548Z" transform="translate(-1088.643 -592.166)"/>
      </g>
      <g id="Group_1554" data-name="Group 1554" transform="translate(0 9.76)">
        <path id="Path_4341" data-name="Path 4341" class="cls-2" d="M1099.908,670.985a.719.719,0,0,1-.719-.719v-5.295a.719.719,0,0,1,1.438,0v5.295A.719.719,0,0,1,1099.908,670.985Z" transform="translate(-1084.352 -649.108)"/>
        <path id="Path_4342" data-name="Path 4342" class="cls-2" d="M1071.4,670.985a.719.719,0,0,1-.719-.719v-5.295a.719.719,0,1,1,1.437,0v5.295A.719.719,0,0,1,1071.4,670.985Z" transform="translate(-1066.14 -649.108)"/>
        <path id="Path_4343" data-name="Path 4343" class="cls-2" d="M1076.912,633.635a5.661,5.661,0,1,1,5.66-5.661A5.667,5.667,0,0,1,1076.912,633.635Zm0-9.884a4.223,4.223,0,1,0,4.223,4.223A4.228,4.228,0,0,0,1076.912,623.751Z" transform="translate(-1066.504 -622.313)"/>
        <g id="Group_1553" data-name="Group 1553" transform="translate(0 9.173)">
          <path id="Path_4344" data-name="Path 4344" class="cls-2" d="M1064.081,647.715c-5.262,1.815-5.978,5.994-5.978,9.514V659.7a.719.719,0,0,0,1.438,0v-2.472c0-3.545.7-7,5.739-8.385A5.7,5.7,0,0,1,1064.081,647.715Z" transform="translate(-1058.103 -647.715)"/>
          <path id="Path_4345" data-name="Path 4345" class="cls-2" d="M1097.075,647.715a5.718,5.718,0,0,1-1.2,1.128c5.035,1.38,5.74,4.841,5.74,8.385V659.7a.719.719,0,0,0,1.438,0v-2.472C1103.052,653.709,1102.337,649.53,1097.075,647.715Z" transform="translate(-1082.235 -647.715)"/>
        </g>
      </g>
      <g id="Group_1555" data-name="Group 1555" transform="translate(17.7 9.758)">
        <path id="Path_4346" data-name="Path 4346" class="cls-3" d="M1113.217,616.394h-3.778v2.327h3.478a.76.76,0,0,1,.573.2.72.72,0,0,1,.189.52.679.679,0,0,1-.762.731h-3.478v2.7h3.907a.786.786,0,0,1,.6.21.777.777,0,0,1,.2.559.76.76,0,0,1-.2.546.786.786,0,0,1-.6.21h-4.557a.989.989,0,0,1-.787-.278,1.362,1.362,0,0,1-.24-.9V616.09a1.8,1.8,0,0,1,.107-.676.72.72,0,0,1,.336-.381,1.258,1.258,0,0,1,.584-.12h4.427a.789.789,0,0,1,.6.2.74.74,0,0,1,.194.533.749.749,0,0,1-.194.54A.79.79,0,0,1,1113.217,616.394Z" transform="translate(-1107.762 -614.913)"/>
        <path id="Path_4347" data-name="Path 4347" class="cls-3" d="M1135.272,620.337h-.587v3.045a1.391,1.391,0,0,1-.231.885.743.743,0,0,1-.6.285.728.728,0,0,1-.622-.3,1.454,1.454,0,0,1-.22-.872V616.09a1.351,1.351,0,0,1,.243-.9.991.991,0,0,1,.784-.278h2.727a7.236,7.236,0,0,1,.965.055,2.194,2.194,0,0,1,.723.223,2.1,2.1,0,0,1,.688.537,2.414,2.414,0,0,1,.455.811,3.064,3.064,0,0,1,.155.979,2.581,2.581,0,0,1-.522,1.694,2.884,2.884,0,0,1-1.584.9,3.192,3.192,0,0,1,.853.8,8.164,8.164,0,0,1,.726,1.128,8.95,8.95,0,0,1,.5,1.08,2.376,2.376,0,0,1,.178.663.744.744,0,0,1-.1.372.778.778,0,0,1-.285.291.806.806,0,0,1-.418.107.743.743,0,0,1-.474-.152,1.388,1.388,0,0,1-.33-.385q-.138-.233-.376-.685l-.672-1.28a7.175,7.175,0,0,0-.646-1.074,1.637,1.637,0,0,0-.579-.5A1.762,1.762,0,0,0,1135.272,620.337Zm.96-3.982h-1.547v2.605h1.5a3.689,3.689,0,0,0,1.017-.12,1.164,1.164,0,0,0,.629-.407,1.284,1.284,0,0,0,.218-.792,1.359,1.359,0,0,0-.175-.695,1.106,1.106,0,0,0-.486-.449A3.084,3.084,0,0,0,1136.232,616.355Z" transform="translate(-1125.307 -614.913)"/>
      </g>
    </g>
  </g>
</svg>
