<svg xmlns="http://www.w3.org/2000/svg" xmlns:xlink="http://www.w3.org/1999/xlink" width="30" height="30" viewBox="0 0 30 30">
  <defs>
    <style>
      .cls-1 {
        clip-path: url(#clip-Artboard_1);
      }

      .cls-2 {
        fill: rgba(0,0,0,0);
      }

      .cls-3 {
        fill: #2d9fc3;
      }
    </style>
    <clipPath id="clip-Artboard_1">
      <rect width="30" height="30"/>
    </clipPath>
  </defs>
  <g id="Artboard_1" data-name="Artboard – 1" class="cls-1">
    <g id="outline-business_center-24px" transform="translate(4 4)">
      <g id="Bounding_Boxes" transform="translate(-1 -1)">
        <path id="Path_3429" data-name="Path 3429" class="cls-2" d="M0,0H24V24H0Z"/>
      </g>
      <g id="Outline" transform="translate(2 3)">
        <path id="Path_3430" data-name="Path 3430" class="cls-3" d="M18.2,6.556H14.6V4.778L12.8,3H9.2L7.4,4.778V6.556H3.8A1.794,1.794,0,0,0,2,8.333v4.444a1.76,1.76,0,0,0,.9,1.538v2.907A1.783,1.783,0,0,0,4.7,19H17.3a1.783,1.783,0,0,0,1.8-1.778V14.307a1.786,1.786,0,0,0,.9-1.529V8.333A1.794,1.794,0,0,0,18.2,6.556Zm-9-1.778h3.6V6.556H9.2ZM3.8,8.333H18.2v4.444H13.7V10.111H8.3v2.667H3.8Zm8.1,5.333H10.1V11.889h1.8Zm5.4,3.556H4.7V14.556H8.3v.889h5.4v-.889h3.6Z" transform="translate(-2 -3)"/>
      </g>
    </g>
  </g>
</svg>
