<svg id="ic_uploader_add" xmlns="http://www.w3.org/2000/svg" width="25" height="25" viewBox="0 0 46 46">
  <path id="color"
    d="M24,1A23,23,0,1,0,47,24,23,23,0,0,0,24,1ZM38.375,25.438a1.438,1.438,0,0,1-1.437,1.438H26.875V36.938a1.438,1.438,0,0,1-1.437,1.437H22.563a1.438,1.438,0,0,1-1.437-1.437V26.875H11.063a1.438,1.438,0,0,1-1.437-1.437V22.563a1.438,1.438,0,0,1,1.438-1.437H21.125V11.063a1.438,1.438,0,0,1,1.438-1.437h2.875a1.438,1.438,0,0,1,1.438,1.438V21.125H36.938a1.438,1.438,0,0,1,1.437,1.438Z"
    transform="translate(-1 -1)" fill="#FFF" />
</svg>